<svg width="125" height="64" viewBox="0 0 125 64" fill="none" xmlns="http://www.w3.org/2000/svg">
<path d="M5.15869 0.920167V23.9019H8.45783V7.26034H8.67104L15.4489 23.8682H18.1869L24.9647 7.27156H25.1779V23.9019H28.4771V0.920167H24.269L16.9525 18.7849H16.6832L9.36677 0.920167H5.15869Z" fill="black"/>
<path d="M38.2651 24.2834C41.1154 24.2834 42.72 22.8359 43.3597 21.5454H43.4943V23.9019H46.771V12.4559C46.771 7.43989 42.821 6.44117 40.083 6.44117C36.9634 6.44117 34.0907 7.69798 32.9685 10.84L36.1218 11.5582C36.6155 10.335 37.8723 9.15679 40.1279 9.15679C42.2936 9.15679 43.4045 10.2902 43.4045 12.2427V12.3213C43.4045 13.5444 42.1477 13.522 39.0506 13.8811C35.7851 14.2626 32.4411 15.1154 32.4411 19.0318C32.4411 22.4207 34.9884 24.2834 38.2651 24.2834ZM38.9945 21.5903C37.098 21.5903 35.729 20.7374 35.729 19.0766C35.729 17.2812 37.3225 16.6416 39.2638 16.3835C40.3523 16.2376 42.9332 15.9458 43.4158 15.4633V17.6852C43.4158 19.7275 41.7886 21.5903 38.9945 21.5903Z" fill="black"/>
<path d="M51.24 23.9019H54.5952V13.3761C54.5952 11.1206 56.3346 9.49343 58.7136 9.49343C59.4093 9.49343 60.1948 9.61687 60.4641 9.69542V6.48606C60.1275 6.44117 59.4654 6.40751 59.039 6.40751C57.0191 6.40751 55.291 7.5521 54.6626 9.40366H54.483V6.6656H51.24V23.9019Z" fill="black"/>
<path d="M70.0108 24.2498C74.0843 24.2498 76.7213 21.8035 77.0917 18.4482H73.8262C73.3998 20.311 71.9522 21.4107 70.0333 21.4107C67.1942 21.4107 65.3651 19.043 65.3651 15.2838C65.3651 11.5919 67.2279 9.269 70.0333 9.269C72.1654 9.269 73.4671 10.6156 73.8262 12.2315H77.0917C76.7326 8.75281 73.8935 6.44117 69.9772 6.44117C65.1183 6.44117 61.9762 10.0994 61.9762 15.3623C61.9762 20.5579 65.006 24.2498 70.0108 24.2498Z" fill="black"/>
<path d="M87.9401 24.2498C92.799 24.2498 95.9747 20.6925 95.9747 15.3623C95.9747 9.9984 92.799 6.44117 87.9401 6.44117C83.0812 6.44117 79.9055 9.9984 79.9055 15.3623C79.9055 20.6925 83.0812 24.2498 87.9401 24.2498ZM87.9513 21.4332C84.7756 21.4332 83.2944 18.6614 83.2944 15.3511C83.2944 12.0519 84.7756 9.24656 87.9513 9.24656C91.1046 9.24656 92.5858 12.0519 92.5858 15.3511C92.5858 18.6614 91.1046 21.4332 87.9513 21.4332Z" fill="black"/>
<path d="M103.075 13.6678C103.075 10.9186 104.758 9.34755 107.092 9.34755C109.37 9.34755 110.751 10.84 110.751 13.3424V23.9019H114.106V12.9384C114.106 8.67426 111.761 6.44117 108.237 6.44117C105.645 6.44117 103.95 7.64188 103.154 9.47099H102.94V6.6656H99.7199V23.9019H103.075V13.6678Z" fill="black"/>
<path d="M118.606 23.9019H121.961V6.6656H118.606V23.9019ZM120.3 4.00609C121.456 4.00609 122.421 3.10837 122.421 2.00866C122.421 0.908945 121.456 0 120.3 0C119.133 0 118.179 0.908945 118.179 2.00866C118.179 3.10837 119.133 4.00609 120.3 4.00609Z" fill="black"/>
<path fill-rule="evenodd" clip-rule="evenodd" d="M46.3704 49.8984C40.0223 44.7584 31.0487 44.409 24.3202 49.0398L4.12651 62.9378C2.92848 63.7624 1.28887 63.4596 0.464344 62.2615C-0.360182 61.0635 -0.0573979 59.4239 1.14063 58.5994L21.3343 44.7014C29.9853 38.7475 41.5228 39.1967 49.6845 45.8052L53.6895 49.048C59.918 54.0912 68.6914 54.532 75.3941 50.1386L83.149 45.0556C92.4765 38.9418 104.804 40.1583 112.757 47.9773L123.857 58.8909C124.894 59.9105 124.908 61.5777 123.889 62.6148C122.869 63.6519 121.202 63.666 120.165 62.6464L109.065 51.7328C102.879 45.6514 93.2909 44.7052 86.0362 49.4604L78.2813 54.5434C69.6635 60.192 58.3834 59.6252 50.3753 53.1411L46.3704 49.8984Z" fill="black"/>
</svg>
